<svg width="18" height="19" viewBox="0 0 18 19" fill="none" xmlns="http://www.w3.org/2000/svg">
<path opacity="0.5" d="M16.9499 8.74447L9.58342 16.1109C8.68098 17.0134 7.457 17.5203 6.18075 17.5203C4.90451 17.5203 3.68053 17.0134 2.77808 16.1109C1.87564 15.2085 1.36865 13.9845 1.36865 12.7082C1.36865 11.432 1.87564 10.208 2.77808 9.30557L10.1445 1.93913C10.7462 1.3375 11.5621 0.999512 12.413 0.999512C13.2638 0.999512 14.0798 1.3375 14.6814 1.93913C15.283 2.54076 15.621 3.35675 15.621 4.20758C15.621 5.05841 15.283 5.8744 14.6814 6.47603L7.30696 13.8425C7.00615 14.1433 6.59815 14.3123 6.17274 14.3123C5.74732 14.3123 5.33933 14.1433 5.03852 13.8425C4.7377 13.5417 4.5687 13.1337 4.5687 12.7082C4.5687 12.2828 4.7377 11.8748 5.03852 11.574L11.8439 4.77669" stroke="black" stroke-linecap="round" stroke-linejoin="round"/>
</svg>
