<svg width="36" height="36" viewBox="0 0 36 36" fill="none" xmlns="http://www.w3.org/2000/svg">
<circle cx="18" cy="18" r="18" fill="#F7F7F8"/>
<path opacity="0.4" d="M24.9996 21.733V23.69C25.0003 23.8717 24.963 24.0515 24.8901 24.218C24.8172 24.3845 24.7102 24.5339 24.5761 24.6567C24.442 24.7795 24.2836 24.873 24.1111 24.9312C23.9387 24.9894 23.756 25.0111 23.5747 24.9947C21.5633 24.7766 19.6313 24.0907 17.9338 22.992C16.3545 21.9905 15.0155 20.6541 14.012 19.078C12.9073 17.3761 12.2199 15.4386 12.0053 13.4222C11.989 13.2418 12.0105 13.06 12.0684 12.8883C12.1263 12.7167 12.2194 12.5589 12.3418 12.4251C12.4641 12.2914 12.6131 12.1845 12.7791 12.1113C12.9451 12.0381 13.1246 12.0002 13.306 12.0001H15.267C15.5842 11.9969 15.8917 12.1091 16.1322 12.3155C16.3727 12.5219 16.5298 12.8086 16.5742 13.1221C16.657 13.7484 16.8105 14.3633 17.0318 14.9552C17.1197 15.1887 17.1387 15.4424 17.0866 15.6864C17.0345 15.9303 16.9134 16.1542 16.7376 16.3316L15.9075 17.1601C16.838 18.7933 18.1929 20.1455 19.8293 21.0741L20.6595 20.2457C20.8372 20.0703 21.0615 19.9494 21.306 19.8974C21.5504 19.8453 21.8047 19.8643 22.0386 19.9521C22.6316 20.173 23.2478 20.3261 23.8753 20.4087C24.1929 20.4534 24.4828 20.6131 24.6901 20.8572C24.8974 21.1014 25.0076 21.4131 24.9996 21.733Z" fill="black"/>
</svg>
