<svg width="14" height="14" viewBox="0 0 14 14" fill="none" xmlns="http://www.w3.org/2000/svg">
<path opacity="0.2" fill-rule="evenodd" clip-rule="evenodd" d="M0 7.01052C0 3.32298 2.947 0 7.014 0C10.99 0 14 3.25989 14 6.98948C14 11.315 10.472 14 7 14C5.852 14 4.578 13.6915 3.556 13.0886C3.199 12.8713 2.898 12.7101 2.513 12.8363L1.099 13.2569C0.742 13.3691 0.42 13.0886 0.525 12.7101L0.994 11.1397C1.071 10.9224 1.057 10.691 0.945 10.5088C0.343 9.4011 0 8.18828 0 7.01052ZM3.75912 7.91485C3.26912 7.91485 2.86312 7.50824 2.86312 7.0175C2.86312 6.51976 3.26212 6.12016 3.75912 6.12016C4.25612 6.12016 4.65512 6.51976 4.65512 7.0175C4.65512 7.50824 4.25612 7.90784 3.75912 7.91485ZM6.08997 7.01058C6.08997 7.50833 6.48897 7.90793 6.98597 7.91494C7.48297 7.91494 7.88197 7.50833 7.88197 7.01759C7.88197 6.51985 7.48297 6.12025 6.98597 6.12025C6.49597 6.11324 6.08997 6.51985 6.08997 7.01058ZM9.31722 7.01754C9.31722 7.50828 9.71622 7.91489 10.2132 7.91489C10.7102 7.91489 11.1092 7.50828 11.1092 7.01754C11.1092 6.5198 10.7102 6.1202 10.2132 6.1202C9.71622 6.1202 9.31722 6.5198 9.31722 7.01754Z" fill="#030229"/>
</svg>
