<svg width="14" height="17" viewBox="0 0 14 17" fill="none" xmlns="http://www.w3.org/2000/svg">
<g opacity="0.3">
<path fill-rule="evenodd" clip-rule="evenodd" d="M0 7.07009C0 3.16021 3.16555 0 6.9946 0C10.8344 0 14 3.16021 14 7.07009C14 9.04034 13.3058 10.8695 12.1631 12.4198C10.9025 14.13 9.34883 15.62 7.59998 16.7896C7.19972 17.0599 6.83848 17.0803 6.39919 16.7896C4.64037 15.62 3.08666 14.13 1.83688 12.4198C0.693398 10.8695 0 9.04034 0 7.07009ZM4.68945 7.29019C4.68945 8.6 5.72498 9.63017 6.99469 9.63017C8.26523 9.63017 9.31072 8.6 9.31072 7.29019C9.31072 5.99058 8.26523 4.91026 6.99469 4.91026C5.72498 4.91026 4.68945 5.99058 4.68945 7.29019Z" fill="#030229"/>
</g>
</svg>
