<svg width="16" height="15" viewBox="0 0 16 15" fill="none" xmlns="http://www.w3.org/2000/svg">
<g opacity="0.3">
<path fill-rule="evenodd" clip-rule="evenodd" d="M11.9512 0C13.024 0 14.056 0.441667 14.8152 1.23417C15.5752 2.025 16 3.09167 16 4.20833V10.7917C16 13.1167 14.184 15 11.9512 15H4.048C1.8152 15 0 13.1167 0 10.7917V4.20833C0 1.88333 1.8072 0 4.048 0H11.9512ZM13.224 5.44987L13.288 5.3832C13.4792 5.14153 13.4792 4.79153 13.2792 4.54987C13.168 4.4257 13.0152 4.34987 12.856 4.3332C12.688 4.32403 12.528 4.3832 12.4072 4.49987L8.79999 7.49987C8.33599 7.9007 7.67119 7.9007 7.19999 7.49987L3.59999 4.49987C3.35119 4.3082 3.00719 4.3332 2.79999 4.5582C2.58399 4.7832 2.55999 5.14153 2.74319 5.39153L2.84799 5.49987L6.48799 8.4582C6.93599 8.82487 7.47919 9.02487 8.04799 9.02487C8.61519 9.02487 9.16799 8.82487 9.61519 8.4582L13.224 5.44987Z" fill="#030229"/>
</g>
</svg>
