<svg width="10" height="10" viewBox="0 0 10 10" fill="none" xmlns="http://www.w3.org/2000/svg">
<path fill-rule="evenodd" clip-rule="evenodd" d="M8.45297 2.18449C8.61506 2.18449 8.75 2.31907 8.75 2.49032V2.64865C8.75 2.81573 8.61506 2.95448 8.45297 2.95448H1.54744C1.38494 2.95448 1.25 2.81573 1.25 2.64865V2.49032C1.25 2.31907 1.38494 2.18449 1.54744 2.18449H2.76232C3.0091 2.18449 3.22388 2.00907 3.27939 1.76158L3.34301 1.47741C3.44189 1.09033 3.76729 0.833252 4.1397 0.833252H5.8603C6.22866 0.833252 6.5577 1.09033 6.65293 1.457L6.72101 1.76116C6.77612 2.00907 6.9909 2.18449 7.23809 2.18449H8.45297ZM7.83576 7.97242C7.9626 6.79035 8.18466 3.98205 8.18466 3.95371C8.19277 3.86788 8.16481 3.78663 8.10929 3.72122C8.04972 3.65997 7.97435 3.62372 7.89128 3.62372H2.11189C2.02841 3.62372 1.94898 3.65997 1.89387 3.72122C1.83795 3.78663 1.81039 3.86788 1.81445 3.95371C1.81519 3.95892 1.82316 4.05784 1.83648 4.22322C1.89566 4.9579 2.06049 7.00415 2.167 7.97242C2.24237 8.68575 2.71041 9.13408 3.38836 9.15033C3.91151 9.16241 4.45047 9.16658 5.00158 9.16658C5.52068 9.16658 6.04789 9.16241 6.58725 9.15033C7.2887 9.13824 7.75634 8.69783 7.83576 7.97242Z" fill="#E71D36"/>
</svg>
