<svg width="60" height="60" viewBox="0 0 60 60" fill="none" xmlns="http://www.w3.org/2000/svg">
<rect opacity="0.1" width="60" height="60" rx="30" fill="#5B93FF"/>
<path fill-rule="evenodd" clip-rule="evenodd" d="M33.8498 20.5006C34.4808 20.5006 35.1108 20.5896 35.7098 20.7906C39.4008 21.9906 40.7308 26.0406 39.6198 29.5806C38.9898 31.3896 37.9598 33.0406 36.6108 34.3896C34.6798 36.2596 32.5608 37.9196 30.2798 39.3496L30.0298 39.5006L29.7698 39.3396C27.4808 37.9196 25.3498 36.2596 23.4008 34.3796C22.0608 33.0306 21.0298 31.3896 20.3898 29.5806C19.2598 26.0406 20.5898 21.9906 24.3208 20.7696C24.6108 20.6696 24.9098 20.5996 25.2098 20.5606H25.3298C25.6108 20.5196 25.8898 20.5006 26.1698 20.5006H26.2798C26.9098 20.5196 27.5198 20.6296 28.1108 20.8306H28.1698C28.2098 20.8496 28.2398 20.8706 28.2598 20.8896C28.4808 20.9606 28.6898 21.0406 28.8898 21.1506L29.2698 21.3206C29.3616 21.3696 29.4647 21.4444 29.5538 21.5091C29.6102 21.5501 29.661 21.587 29.6998 21.6106C29.7161 21.6203 29.7327 21.63 29.7494 21.6397C29.8352 21.6898 29.9245 21.7419 29.9998 21.7996C31.1108 20.9506 32.4598 20.4906 33.8498 20.5006ZM36.5098 27.7006C36.9198 27.6896 37.2698 27.3606 37.2998 26.9396V26.8206C37.3298 25.4196 36.4808 24.1506 35.1898 23.6606C34.7798 23.5196 34.3298 23.7406 34.1798 24.1606C34.0398 24.5806 34.2598 25.0406 34.6798 25.1896C35.3208 25.4296 35.7498 26.0606 35.7498 26.7596V26.7906C35.7308 27.0196 35.7998 27.2406 35.9398 27.4106C36.0798 27.5806 36.2898 27.6796 36.5098 27.7006Z" fill="#5B93FF"/>
</svg>
