<svg width="60" height="60" viewBox="0 0 60 60" fill="none" xmlns="http://www.w3.org/2000/svg">
<rect opacity="0.2" width="60" height="60" rx="30" fill="#FFD66B"/>
<path fill-rule="evenodd" clip-rule="evenodd" d="M33.164 23.0825C33.4791 23.0868 33.7949 23.0912 34.1119 23.0944C37.5172 23.0944 40 25.5222 40 28.8748V33.1811C40 36.5337 37.5172 38.9615 34.1119 38.9615C32.7478 38.9904 31.3837 39 30.0098 39C28.6359 39 27.2522 38.9904 25.8881 38.9615C22.4828 38.9615 20 36.5337 20 33.1811V28.8748C20 25.5222 22.4828 23.0944 25.8979 23.0944C27.1835 23.0751 28.4985 23.0559 29.8332 23.0559V22.8921C29.8332 22.2274 29.2738 21.6879 28.6065 21.6879H27.6349C26.526 21.6879 25.6232 20.8015 25.6232 19.7225C25.6232 19.3276 25.9568 19 26.3592 19C26.7713 19 27.0952 19.3276 27.0952 19.7225C27.0952 20.0116 27.3405 20.2428 27.6349 20.2428H28.6065C30.0883 20.2524 31.2954 21.4374 31.3052 22.8825V23.0655C31.9239 23.0655 32.5425 23.074 33.164 23.0825ZM28.8518 31.7457H27.8214V32.7669C27.8214 33.1618 27.4877 33.4894 27.0854 33.4894C26.6732 33.4894 26.3494 33.1618 26.3494 32.7669V31.7457H25.3091C24.9068 31.7457 24.5731 31.4277 24.5731 31.0231C24.5731 30.6281 24.9068 30.3006 25.3091 30.3006H26.3494V29.289C26.3494 28.894 26.6732 28.5665 27.0854 28.5665C27.4877 28.5665 27.8214 28.894 27.8214 29.289V30.3006H28.8518C29.2542 30.3006 29.5878 30.6281 29.5878 31.0231C29.5878 31.4277 29.2542 31.7457 28.8518 31.7457ZM33.0226 30.1175H33.1207C33.5231 30.1175 33.8567 29.7996 33.8567 29.395C33.8567 29 33.5231 28.6724 33.1207 28.6724H33.0226C32.6104 28.6724 32.2866 29 32.2866 29.395C32.2866 29.7996 32.6104 30.1175 33.0226 30.1175ZM34.7007 33.4316H34.7988C35.2012 33.4316 35.5348 33.1137 35.5348 32.7091C35.5348 32.3141 35.2012 31.9865 34.7988 31.9865H34.7007C34.2875 31.9865 33.9647 32.3141 33.9647 32.7091C33.9647 33.1137 34.2875 33.4316 34.7007 33.4316Z" fill="#FFC327"/>
</svg>
