<svg width="60" height="60" viewBox="0 0 60 60" fill="none" xmlns="http://www.w3.org/2000/svg">
<rect opacity="0.1" width="60" height="60" rx="30" fill="#605BFF"/>
<path fill-rule="evenodd" clip-rule="evenodd" d="M28.7044 21.519C28.034 21.519 27.4637 21.9848 27.3037 22.6126H32.6863C32.5263 21.9848 31.956 21.519 31.2856 21.519H28.7044ZM34.2071 22.6126H36.1881C38.2891 22.6126 40 24.3443 40 26.4709C40 26.4709 39.94 27.3711 39.92 28.6248C39.918 28.724 39.8699 28.8212 39.7909 28.88C39.3097 29.2354 38.8694 29.5291 38.8294 29.5493C37.1686 30.6632 35.2386 31.447 33.1826 31.8369C33.0485 31.8632 32.9165 31.7934 32.8484 31.6739C32.2721 30.6754 31.1956 30.0253 29.995 30.0253C28.8024 30.0253 27.7159 30.6683 27.1226 31.6678C27.0535 31.7853 26.9235 31.8531 26.7904 31.8278C24.7514 31.4369 22.8214 30.6541 21.1706 29.5594L20.2101 28.8911C20.1301 28.8405 20.08 28.7493 20.08 28.6481C20.05 28.1316 20 26.4709 20 26.4709C20 24.3443 21.7109 22.6126 23.8119 22.6126H25.7829C25.973 21.1443 27.2036 20 28.7044 20H31.2856C32.7864 20 34.017 21.1443 34.2071 22.6126ZM39.6598 30.8152L39.6198 30.8355C37.5988 32.1924 35.1676 33.0937 32.6163 33.4684C32.2561 33.519 31.8959 33.2861 31.7959 32.9216C31.5758 32.0912 30.8654 31.5443 30.015 31.5443H30.005H29.985C29.1346 31.5443 28.4242 32.0912 28.2041 32.9216C28.1041 33.2861 27.7439 33.519 27.3837 33.4684C24.8324 33.0937 22.4012 32.1924 20.3802 30.8355C20.3702 30.8254 20.2701 30.7646 20.1901 30.8152C20.1001 30.8659 20.1001 30.9874 20.1001 30.9874L20.1701 36.1519C20.1701 38.2785 21.8709 40 23.972 40H36.018C38.1191 40 39.8199 38.2785 39.8199 36.1519L39.9 30.9874C39.9 30.9874 39.9 30.8659 39.8099 30.8152C39.7599 30.7849 39.6999 30.795 39.6598 30.8152ZM30.7454 35.0583C30.7454 35.4836 30.4152 35.8177 29.995 35.8177C29.5848 35.8177 29.2446 35.4836 29.2446 35.0583V33.7519C29.2446 33.3367 29.5848 32.9924 29.995 32.9924C30.4152 32.9924 30.7454 33.3367 30.7454 33.7519V35.0583Z" fill="#605BFF"/>
</svg>
