<svg width="40" height="40" viewBox="0 0 40 40" fill="none" xmlns="http://www.w3.org/2000/svg">
<circle opacity="0.1" cx="20" cy="20" r="20" fill="#FFD66B"/>
<path fill-rule="evenodd" clip-rule="evenodd" d="M17.9594 26.2439L24.7933 17.4065C25.1647 16.9299 25.2967 16.3789 25.1729 15.8179C25.0656 15.3079 24.752 14.8229 24.2816 14.4551L23.1343 13.5437C22.1357 12.7494 20.8976 12.833 20.1879 13.7444L19.4203 14.7402C19.3212 14.8647 19.346 15.0487 19.4698 15.149C19.4698 15.149 21.4094 16.7041 21.4506 16.7376C21.5827 16.863 21.6817 17.0302 21.7065 17.2309C21.7478 17.6238 21.4754 17.9917 21.071 18.0419C20.8811 18.067 20.6996 18.0084 20.5675 17.8997L18.5289 16.2777C18.4299 16.2033 18.2813 16.2192 18.1988 16.3195L13.354 22.5902C13.0404 22.9832 12.9331 23.4932 13.0404 23.9865L13.6594 26.6703C13.6924 26.8125 13.8162 26.9128 13.9648 26.9128L16.6884 26.8794C17.1836 26.871 17.6458 26.6452 17.9594 26.2439ZM21.7731 25.4082H26.2143C26.6476 25.4082 27 25.7652 27 26.2041C27 26.6439 26.6476 27.0001 26.2143 27.0001H21.7731C21.3398 27.0001 20.9874 26.6439 20.9874 26.2041C20.9874 25.7652 21.3398 25.4082 21.7731 25.4082Z" fill="#FFD66B"/>
</svg>
