<svg width="18" height="16" viewBox="0 0 18 16" fill="none" xmlns="http://www.w3.org/2000/svg">
<path d="M14.3532 9.95302C14.1351 10.1644 14.0349 10.47 14.0846 10.7698L14.8332 14.9127C14.8963 15.2638 14.7481 15.6192 14.4543 15.8221C14.1663 16.0326 13.7831 16.0579 13.4691 15.8895L9.73962 13.9443C9.60994 13.8753 9.46595 13.8382 9.31859 13.834H9.0904C9.01125 13.8458 8.93378 13.8711 8.86305 13.9098L5.13277 15.8642C4.94836 15.9568 4.73953 15.9897 4.53491 15.9568C4.03642 15.8625 3.70381 15.3876 3.78549 14.8866L4.53491 10.7437C4.58459 10.4414 4.48439 10.1341 4.2663 9.91934L1.22566 6.97217C0.971361 6.72545 0.882946 6.35494 0.999149 6.02065C1.11198 5.6872 1.39996 5.44385 1.74773 5.38911L5.93271 4.782C6.25101 4.74916 6.53057 4.55549 6.67372 4.26919L8.51781 0.488388C8.56159 0.404184 8.61801 0.326715 8.68622 0.261035L8.762 0.202092C8.80158 0.158305 8.84705 0.122097 8.89757 0.0926254L8.98935 0.0589434L9.1325 0H9.487C9.80361 0.0328399 10.0823 0.222301 10.228 0.505229L12.0965 4.26919C12.2312 4.54454 12.4931 4.73568 12.7954 4.782L16.9804 5.38911C17.3341 5.43964 17.6296 5.68383 17.7467 6.02065C17.857 6.35831 17.7618 6.72881 17.5025 6.97217L14.3532 9.95302Z" fill="#FFD66B"/>
</svg>
