<svg width="16" height="14" viewBox="0 0 16 14" fill="none" xmlns="http://www.w3.org/2000/svg">
<g opacity="0.2">
<path fill-rule="evenodd" clip-rule="evenodd" d="M10.8364 0.000117643C11.3013 0.000117643 11.7655 0.0656907 12.2068 0.213783C14.9263 1.09791 15.9062 4.08186 15.0876 6.69004C14.6235 8.02287 13.8646 9.23929 12.8707 10.2332C11.448 11.611 9.88674 12.834 8.20615 13.8876L8.02196 13.9989L7.83039 13.8802C6.14391 12.834 4.57384 11.611 3.13787 10.2258C2.15059 9.23192 1.39097 8.02287 0.919435 6.69004C0.0868779 4.08186 1.06679 1.09791 3.8157 0.19831C4.02937 0.124633 4.24966 0.0730585 4.4707 0.0443242H4.55911C4.76614 0.0141164 4.9717 0.000117643 5.178 0.000117643H5.25905C5.72321 0.0141164 6.17265 0.0951617 6.60808 0.243254H6.65155C6.68102 0.257252 6.70313 0.272725 6.71786 0.286724C6.88069 0.339035 7.03468 0.397977 7.18203 0.479022L7.46201 0.604274C7.52966 0.640355 7.60559 0.695487 7.67122 0.743134C7.7128 0.773323 7.75024 0.800508 7.77882 0.817939C7.79084 0.825032 7.80306 0.832165 7.81538 0.839356C7.87856 0.876234 7.94436 0.914648 7.99985 0.95719C8.81841 0.331667 9.81232 -0.00725012 10.8364 0.000117643ZM12.7962 5.30482C13.0983 5.29671 13.3562 5.05432 13.3783 4.74413V4.65646C13.4004 3.62423 12.7749 2.68926 11.8237 2.32824C11.5216 2.22436 11.19 2.38719 11.0795 2.69663C10.9764 3.00608 11.1385 3.34499 11.4479 3.45477C11.9202 3.6316 12.2363 4.09651 12.2363 4.61151V4.63435C12.2223 4.80307 12.2731 4.9659 12.3763 5.09115C12.4794 5.21641 12.6341 5.28935 12.7962 5.30482Z" fill="#030229"/>
</g>
</svg>
