<svg width="20" height="21" viewBox="0 0 20 21" fill="none" xmlns="http://www.w3.org/2000/svg">
<path d="M16.5167 3.87476V2.93542C16.5167 1.31683 15.1999 0 13.5813 0H6.37976C4.76117 0 3.44434 1.31683 3.44434 2.93542V3.87476H16.5167Z" fill="#605BFF"/>
<path d="M4.61841 12.4853V17.2603V18.2779V18.865C4.61841 19.5134 5.14408 20.0391 5.79258 20.0391H14.1683C14.8168 20.0391 15.3425 19.5134 15.3425 18.865V18.2779V17.2603V12.4853H4.61841ZM11.546 17.4951H8.41489C8.09066 17.4951 7.8278 17.2322 7.8278 16.908C7.8278 16.5838 8.09066 16.3209 8.41489 16.3209H11.546C11.8702 16.3209 12.1331 16.5838 12.1331 16.908C12.1331 17.2322 11.8702 17.4951 11.546 17.4951ZM11.546 14.9902H8.41489C8.09066 14.9902 7.8278 14.7274 7.8278 14.4031C7.8278 14.0789 8.09066 13.816 8.41489 13.816H11.546C11.8702 13.816 12.1331 14.0789 12.1331 14.4031C12.1331 14.7274 11.8702 14.9902 11.546 14.9902Z" fill="#605BFF"/>
<path d="M17.0646 5.04892H2.93542C1.31683 5.04892 0 6.36575 0 7.98434V12.681C0 14.2996 1.31683 15.6164 2.93542 15.6164H3.44423V12.4853H3.09198C2.76775 12.4853 2.50489 12.2225 2.50489 11.8982C2.50489 11.574 2.76775 11.3112 3.09198 11.3112H4.03131H15.9296H16.8689C17.1931 11.3112 17.456 11.574 17.456 11.8982C17.456 12.2225 17.1931 12.4853 16.8689 12.4853H16.5166V15.6164H17.0646C18.6832 15.6164 20 14.2996 20 12.681V7.98434C20 6.36575 18.6832 5.04892 17.0646 5.04892ZM4.97065 8.72798H3.09198C2.76775 8.72798 2.50489 8.46512 2.50489 8.1409C2.50489 7.81667 2.76775 7.55381 3.09198 7.55381H4.97065C5.29487 7.55381 5.55773 7.81667 5.55773 8.1409C5.55773 8.46512 5.29487 8.72798 4.97065 8.72798Z" fill="#605BFF"/>
</svg>
