<svg width="83" height="14" viewBox="0 0 83 14" fill="none" xmlns="http://www.w3.org/2000/svg">
<path d="M11.9376 8.70889C11.7434 8.89383 11.6541 9.16128 11.6984 9.42358L12.365 13.0486C12.4213 13.3558 12.2893 13.6668 12.0276 13.8443C11.7711 14.0285 11.4299 14.0506 11.1502 13.9033L7.82888 12.2013C7.7134 12.1409 7.58517 12.1085 7.45393 12.1048H7.25071C7.18022 12.1151 7.11123 12.1372 7.04824 12.1711L3.72617 13.8812C3.56194 13.9622 3.37597 13.991 3.19374 13.9622C2.7498 13.8797 2.45359 13.4642 2.52633 13.0258L3.19374 9.40074C3.23798 9.13623 3.14875 8.8673 2.95452 8.67942L0.246625 6.10065C0.0201542 5.88476 -0.0585855 5.56058 0.044901 5.26807C0.145388 4.9763 0.401854 4.76337 0.711564 4.71547L4.43858 4.18425C4.72204 4.15551 4.97101 3.98605 5.09849 3.73554L6.74078 0.42734C6.77977 0.353661 6.83001 0.285876 6.89076 0.228406L6.95825 0.17683C6.99349 0.138517 7.03399 0.106835 7.07898 0.0810472L7.16072 0.0515755L7.2882 0H7.60391C7.88588 0.0287349 8.13409 0.194513 8.26383 0.442076L9.92786 3.73554C10.0478 3.97647 10.2811 4.14372 10.5503 4.18425L14.2773 4.71547C14.5922 4.75968 14.8555 4.97335 14.9597 5.26807C15.0579 5.56352 14.9732 5.88771 14.7422 6.10065L11.9376 8.70889Z" fill="#FFD66B"/>
<path d="M28.9376 8.70889C28.7434 8.89383 28.6541 9.16128 28.6984 9.42358L29.365 13.0486C29.4213 13.3558 29.2893 13.6668 29.0276 13.8443C28.7711 14.0285 28.4299 14.0506 28.1502 13.9033L24.8289 12.2013C24.7134 12.1409 24.5852 12.1085 24.4539 12.1048H24.2507C24.1802 12.1151 24.1112 12.1372 24.0482 12.1711L20.7262 13.8812C20.5619 13.9622 20.376 13.991 20.1937 13.9622C19.7498 13.8797 19.4536 13.4642 19.5263 13.0258L20.1937 9.40074C20.238 9.13623 20.1487 8.8673 19.9545 8.67942L17.2466 6.10065C17.0202 5.88476 16.9414 5.56058 17.0449 5.26807C17.1454 4.9763 17.4019 4.76337 17.7116 4.71547L21.4386 4.18425C21.722 4.15551 21.971 3.98605 22.0985 3.73554L23.7408 0.42734C23.7798 0.353661 23.83 0.285876 23.8908 0.228406L23.9582 0.17683C23.9935 0.138517 24.034 0.106835 24.079 0.0810472L24.1607 0.0515755L24.2882 0H24.6039C24.8859 0.0287349 25.1341 0.194513 25.2638 0.442076L26.9279 3.73554C27.0478 3.97647 27.2811 4.14372 27.5503 4.18425L31.2773 4.71547C31.5922 4.75968 31.8555 4.97335 31.9597 5.26807C32.0579 5.56352 31.9732 5.88771 31.7422 6.10065L28.9376 8.70889Z" fill="#FFD66B"/>
<path d="M45.9376 8.70889C45.7434 8.89383 45.6541 9.16128 45.6984 9.42358L46.365 13.0486C46.4213 13.3558 46.2893 13.6668 46.0276 13.8443C45.7711 14.0285 45.4299 14.0506 45.1502 13.9033L41.8289 12.2013C41.7134 12.1409 41.5852 12.1085 41.4539 12.1048H41.2507C41.1802 12.1151 41.1112 12.1372 41.0482 12.1711L37.7262 13.8812C37.5619 13.9622 37.376 13.991 37.1937 13.9622C36.7498 13.8797 36.4536 13.4642 36.5263 13.0258L37.1937 9.40074C37.238 9.13623 37.1487 8.8673 36.9545 8.67942L34.2466 6.10065C34.0202 5.88476 33.9414 5.56058 34.0449 5.26807C34.1454 4.9763 34.4019 4.76337 34.7116 4.71547L38.4386 4.18425C38.722 4.15551 38.971 3.98605 39.0985 3.73554L40.7408 0.42734C40.7798 0.353661 40.83 0.285876 40.8908 0.228406L40.9582 0.17683C40.9935 0.138517 41.034 0.106835 41.079 0.0810472L41.1607 0.0515755L41.2882 0H41.6039C41.8859 0.0287349 42.1341 0.194513 42.2638 0.442076L43.9279 3.73554C44.0478 3.97647 44.2811 4.14372 44.5503 4.18425L48.2773 4.71547C48.5922 4.75968 48.8555 4.97335 48.9597 5.26807C49.0579 5.56352 48.9732 5.88771 48.7422 6.10065L45.9376 8.70889Z" fill="#FFD66B"/>
<path d="M62.9376 8.70889C62.7434 8.89383 62.6541 9.16128 62.6984 9.42358L63.365 13.0486C63.4213 13.3558 63.2893 13.6668 63.0276 13.8443C62.7711 14.0285 62.4299 14.0506 62.1502 13.9033L58.8289 12.2013C58.7134 12.1409 58.5852 12.1085 58.4539 12.1048H58.2507C58.1802 12.1151 58.1112 12.1372 58.0482 12.1711L54.7262 13.8812C54.5619 13.9622 54.376 13.991 54.1937 13.9622C53.7498 13.8797 53.4536 13.4642 53.5263 13.0258L54.1937 9.40074C54.238 9.13623 54.1487 8.8673 53.9545 8.67942L51.2466 6.10065C51.0202 5.88476 50.9414 5.56058 51.0449 5.26807C51.1454 4.9763 51.4019 4.76337 51.7116 4.71547L55.4386 4.18425C55.722 4.15551 55.971 3.98605 56.0985 3.73554L57.7408 0.42734C57.7798 0.353661 57.83 0.285876 57.8908 0.228406L57.9582 0.17683C57.9935 0.138517 58.034 0.106835 58.079 0.0810472L58.1607 0.0515755L58.2882 0H58.6039C58.8859 0.0287349 59.1341 0.194513 59.2638 0.442076L60.9279 3.73554C61.0478 3.97647 61.2811 4.14372 61.5503 4.18425L65.2773 4.71547C65.5922 4.75968 65.8555 4.97335 65.9597 5.26807C66.0579 5.56352 65.9732 5.88771 65.7422 6.10065L62.9376 8.70889Z" fill="#FFD66B"/>
<path opacity="0.4" d="M79.9376 8.70889C79.7434 8.89383 79.6541 9.16128 79.6984 9.42358L80.365 13.0486C80.4213 13.3558 80.2893 13.6668 80.0276 13.8443C79.7711 14.0285 79.4299 14.0506 79.1502 13.9033L75.8289 12.2013C75.7134 12.1409 75.5852 12.1085 75.4539 12.1048H75.2507C75.1802 12.1151 75.1112 12.1372 75.0482 12.1711L71.7262 13.8812C71.5619 13.9622 71.376 13.991 71.1937 13.9622C70.7498 13.8797 70.4536 13.4642 70.5263 13.0258L71.1937 9.40074C71.238 9.13623 71.1487 8.8673 70.9545 8.67942L68.2466 6.10065C68.0202 5.88476 67.9414 5.56058 68.0449 5.26807C68.1454 4.9763 68.4019 4.76337 68.7116 4.71547L72.4386 4.18425C72.722 4.15551 72.971 3.98605 73.0985 3.73554L74.7408 0.42734C74.7798 0.353661 74.83 0.285876 74.8908 0.228406L74.9582 0.17683C74.9935 0.138517 75.034 0.106835 75.079 0.0810472L75.1607 0.0515755L75.2882 0H75.6039C75.8859 0.0287349 76.1341 0.194513 76.2638 0.442076L77.9279 3.73554C78.0478 3.97647 78.2811 4.14372 78.5503 4.18425L82.2773 4.71547C82.5922 4.75968 82.8555 4.97335 82.9597 5.26807C83.0579 5.56352 82.9732 5.88771 82.7422 6.10065L79.9376 8.70889Z" fill="#FFD66B"/>
</svg>
