<svg width="14" height="14" viewBox="0 0 14 14" fill="none" xmlns="http://www.w3.org/2000/svg">
<g opacity="0.5">
<path fill-rule="evenodd" clip-rule="evenodd" d="M1.16663 6.2242C1.16663 3.43105 3.40682 1.16675 6.17025 1.16675C7.49729 1.16675 8.76998 1.69959 9.70834 2.64804C10.6467 3.5965 11.1739 4.88288 11.1739 6.2242C11.1739 9.01736 8.93367 11.2817 6.17025 11.2817C3.40682 11.2817 1.16663 9.01736 1.16663 6.2242ZM11.0911 10.2984L12.5813 11.5013H12.6072C12.9087 11.8061 12.9087 12.3001 12.6072 12.6049C12.3057 12.9096 11.8169 12.9096 11.5154 12.6049L10.2787 11.1875C10.1618 11.0698 10.0961 10.9098 10.0961 10.743C10.0961 10.5761 10.1618 10.4162 10.2787 10.2984C10.5042 10.0745 10.8656 10.0745 11.0911 10.2984Z" fill="#200E32"/>
</g>
</svg>
