<svg width="134" height="134" viewBox="0 0 134 134" fill="none" xmlns="http://www.w3.org/2000/svg">
<circle cx="67" cy="67" r="67" fill="#F7F7F8"/>
<g opacity="0.7">
<path fill-rule="evenodd" clip-rule="evenodd" d="M73.844 59.2073C73.898 59.2982 73.9925 59.3632 74.114 59.3632C77.354 59.3632 80 61.9083 80 65.0249V72.7383C80 75.8548 77.354 78.4 74.114 78.4H58.886C55.6325 78.4 53 75.8548 53 72.7383V65.0249C53 61.9083 55.6325 59.3632 58.886 59.3632C58.994 59.3632 59.102 59.3112 59.1425 59.2073L59.2235 59.0515C59.2701 58.9571 59.3178 58.8602 59.3663 58.7618C59.7117 58.0614 60.0938 57.2864 60.3305 56.831C60.9515 55.6623 62.0045 55.013 63.314 55H69.6725C70.982 55.013 72.0485 55.6623 72.6695 56.831C72.8821 57.2401 73.2061 57.899 73.5184 58.5342C73.5828 58.6651 73.6467 58.7951 73.709 58.9216L73.844 59.2073ZM72.8584 64.1935C72.8584 64.8428 73.3984 65.3622 74.0734 65.3622C74.7484 65.3622 75.302 64.8428 75.302 64.1935C75.302 63.5442 74.7484 63.0118 74.0734 63.0118C73.3984 63.0118 72.8584 63.5442 72.8584 64.1935ZM64.164 66.2065C64.7985 65.5961 65.622 65.2715 66.4995 65.2715C67.377 65.2715 68.2005 65.5961 68.8215 66.1935C69.4425 66.7908 69.78 67.5829 69.78 68.427C69.7665 70.1671 68.3085 71.5825 66.4995 71.5825C65.622 71.5825 64.7985 71.2579 64.1775 70.6605C63.5565 70.0632 63.219 69.2711 63.219 68.427V68.414C63.2055 67.5959 63.543 66.8038 64.164 66.2065ZM70.2393 72.037C69.2808 72.9589 67.9578 73.5303 66.4998 73.5303C65.0823 73.5303 63.7593 72.9979 62.7468 72.037C61.7478 71.063 61.1943 69.7904 61.1943 68.427C61.1808 67.0765 61.7343 65.8039 62.7333 64.83C63.7458 63.856 65.0823 63.3236 66.4998 63.3236C67.9173 63.3236 69.2538 63.856 70.2528 64.817C71.2518 65.7909 71.8053 67.0765 71.8053 68.427C71.7918 69.8424 71.1978 71.115 70.2393 72.037Z" fill="#030229"/>
</g>
</svg>
