<svg width="36" height="36" viewBox="0 0 36 36" fill="none" xmlns="http://www.w3.org/2000/svg">
<circle cx="18" cy="18" r="18" fill="#F7F7F8"/>
<g opacity="0.4">
<path d="M18 18.75C17.5858 18.75 17.25 18.4142 17.25 18C17.25 17.5858 17.5858 17.25 18 17.25C18.4142 17.25 18.75 17.5858 18.75 18C18.75 18.4142 18.4142 18.75 18 18.75Z" fill="black" stroke="black" stroke-width="2" stroke-linecap="round" stroke-linejoin="round"/>
<path d="M18 13.5C17.5858 13.5 17.25 13.1642 17.25 12.75C17.25 12.3358 17.5858 12 18 12C18.4142 12 18.75 12.3358 18.75 12.75C18.75 13.1642 18.4142 13.5 18 13.5Z" fill="black" stroke="black" stroke-width="2" stroke-linecap="round" stroke-linejoin="round"/>
<path d="M18 24C17.5858 24 17.25 23.6642 17.25 23.25C17.25 22.8358 17.5858 22.5 18 22.5C18.4142 22.5 18.75 22.8358 18.75 23.25C18.75 23.6642 18.4142 24 18 24Z" fill="black" stroke="black" stroke-width="2" stroke-linecap="round" stroke-linejoin="round"/>
</g>
</svg>
