<svg width="64" height="64" viewBox="0 0 64 64" fill="none" xmlns="http://www.w3.org/2000/svg">
<path fill-rule="evenodd" clip-rule="evenodd" d="M34.1213 31.2331H36.8891C37.3088 31.2331 37.6386 30.8861 37.6386 30.4677C37.6386 30.0391 37.3088 29.7024 36.8891 29.7024H34.1213C33.7016 29.7024 33.3719 30.0391 33.3719 30.4677C33.3719 30.8861 33.7016 31.2331 34.1213 31.2331ZM40.1766 25.9275C40.7861 25.9275 41.1858 26.1418 41.5855 26.6112C41.9852 27.0807 42.0551 27.7542 41.9652 28.3655L41.0159 35.06C40.8361 36.3469 39.7569 37.2949 38.4879 37.2949H27.5864C26.2574 37.2949 25.1583 36.255 25.0484 34.908L24.1291 23.7834L22.6203 23.5181C22.2206 23.4466 21.9408 23.0486 22.0107 22.6404C22.0807 22.223 22.4704 21.9465 22.8801 22.0087L25.2632 22.3751C25.6029 22.4374 25.8527 22.7221 25.8827 23.069L26.0726 25.355C26.1025 25.6826 26.3623 25.9275 26.6821 25.9275H40.1766ZM27.4263 38.9079C26.587 38.9079 25.9075 39.6018 25.9075 40.459C25.9075 41.3061 26.587 42 27.4263 42C28.2557 42 28.9351 41.3061 28.9351 40.459C28.9351 39.6018 28.2557 38.9079 27.4263 38.9079ZM38.6676 38.9079C37.8282 38.9079 37.1487 39.6018 37.1487 40.459C37.1487 41.3061 37.8282 42 38.6676 42C39.4969 42 40.1764 41.3061 40.1764 40.459C40.1764 39.6018 39.4969 38.9079 38.6676 38.9079Z" fill="#FFC327"/>
<rect opacity="0.1" width="64" height="64" rx="32" fill="#FFD66B"/>
</svg>
