<svg width="19" height="16" viewBox="0 0 19 16" fill="none" xmlns="http://www.w3.org/2000/svg">
<path opacity="0.3" d="M15.191 9.95302C14.9593 10.1644 14.8528 10.47 14.9056 10.7698L15.701 14.9127C15.7681 15.2638 15.6106 15.6192 15.2983 15.8221C14.9924 16.0326 14.5853 16.0579 14.2516 15.8895L10.289 13.9443C10.1513 13.8753 9.99828 13.8382 9.84171 13.834H9.59925C9.51515 13.8458 9.43284 13.8711 9.35769 13.9098L5.39427 15.8642C5.19834 15.9568 4.97646 15.9897 4.75905 15.9568C4.2294 15.8625 3.876 15.3876 3.96279 14.8866L4.75905 10.7437C4.81184 10.4414 4.70537 10.1341 4.47365 9.91934L1.24297 6.97217C0.972776 6.72545 0.878835 6.35494 1.0023 6.02065C1.12219 5.6872 1.42817 5.44385 1.79767 5.38911L6.24421 4.782C6.5824 4.74916 6.87943 4.55549 7.03153 4.26919L8.99087 0.488388C9.0374 0.404184 9.09734 0.326715 9.16981 0.261035L9.25033 0.202092C9.29238 0.158305 9.34069 0.122097 9.39437 0.0926254L9.49189 0.0589434L9.64399 0H10.0206C10.357 0.0328399 10.6532 0.222301 10.808 0.505229L12.7933 4.26919C12.9364 4.54454 13.2146 4.73568 13.5358 4.782L17.9824 5.38911C18.3581 5.43964 18.6722 5.68383 18.7965 6.02065C18.9137 6.35831 18.8126 6.72881 18.5371 6.97217L15.191 9.95302Z" fill="#B3B3BF"/>
</svg>
